nColumns=19
nRows=65
DataType=double
version=3
OpenSimVersion=4.1
endheader
time	ground_force_1_vx	ground_force_1_vy	ground_force_1_vz	ground_force_1_px	ground_force_1_py	ground_force_1_pz	ground_force_1_mx	ground_force_1_my	ground_force_1_mz	ground_force_2_vx	ground_force_2_vy	ground_force_2_vz	ground_force_2_px	ground_force_2_py	ground_force_2_pz	ground_force_2_mx	ground_force_2_my	ground_force_2_mz
0	3.94827	225.574	35.818	0.129951	0.006	-0.193097	0	1.08027	0	0	0	0	0.722998	0	-0.228545	0	0	0
0.01	-4.059	253.646	35.4486	0.135109	0.006	-0.192102	0	0.892948	0	0	0	0	0.722998	0	-0.228545	0	0	0
0.02	-12.8833	285.995	34.3815	0.141246	0.006	-0.190741	0	0.673616	0	0	0	0	0.722998	0	-0.228545	0	0	0
0.03	-22.3642	322.16	32.4065	0.147325	0.006	-0.189211	0	0.423964	0	0	0	0	0.722998	0	-0.228545	0	0	0
0.04	-32.3329	361.431	29.3452	0.153257	0.006	-0.187553	0	0.147559	0	0	0	0	0.722998	0	-0.228545	0	0	0
0.05	-42.5969	402.904	25.1039	0.158992	0.006	-0.185811	0	-0.147794	0	0	0	0	0.722998	0	-0.228545	0	0	0
0.06	-52.927	445.53	19.7178	0.1645	0.006	-0.184037	0	-0.448243	0	0	0	0	0.722998	0	-0.228545	0	0	0
0.07	-63.0536	488.156	13.3723	0.169751	0.006	-0.182285	0	-0.734102	0	0	0	0	0.722998	0	-0.228545	0	0	0
0.08	-72.669	529.559	6.39157	0.17472	0.006	-0.180606	0	-0.983632	0	0	0	0	0.722998	0	-0.228545	0	0	0
0.09	-81.441	568.537	-0.818765	0.179386	0.006	-0.179042	0	-1.17973	0	0	0	0	0.722998	0	-0.228545	0	0	0
0.1	-89.05	604.028	-7.85286	0.183742	0.006	-0.177619	0	-1.31567	0	0	0	0	0.722998	0	-0.228545	0	0	0
0.11	-95.2454	635.23	-14.3835	0.187797	0.006	-0.176346	0	-1.39725	0	0	0	0	0.722998	0	-0.228545	0	0	0
0.12	-99.8873	661.643	-20.1857	0.19158	0.006	-0.175214	0	-1.43833	0	0	0	0	0.722998	0	-0.228545	0	0	0
0.13	-102.934	683.025	-25.1157	0.195125	0.006	-0.174212	0	-1.45396	0	0	0	0	0.722998	0	-0.228545	0	0	0
0.14	-104.424	699.33	-29.1028	0.198475	0.006	-0.173322	0	-1.45759	0	0	0	0	0.722998	0	-0.228545	0	0	0
0.15	-104.466	710.673	-32.1472	0.201673	0.006	-0.172522	0	-1.4606	0	0	0	0	0.722998	0	-0.228545	0	0	0
0.16	-103.209	717.297	-34.3011	0.204766	0.006	-0.171793	0	-1.47112	0	0	0	0	0.722998	0	-0.228545	0	0	0
0.17	-100.823	719.543	-35.6425	0.207796	0.006	-0.171116	0	-1.49325	0	0	0	0	0.722998	0	-0.228545	0	0	0
0.18	-97.487	717.84	-36.256	0.210805	0.006	-0.170476	0	-1.52788	0	0	0	0	0.722998	0	-0.228545	0	0	0
0.19	-93.3816	712.699	-36.2238	0.21383	0.006	-0.16986	0	-1.57442	0	0	0	0	0.722998	0	-0.228545	0	0	0
0.2	-88.6928	704.705	-35.6237	0.216908	0.006	-0.169263	0	-1.63236	0	0	0	0	0.722998	0	-0.228545	0	0	0
0.21	-83.6079	694.504	-34.5305	0.220071	0.006	-0.168678	0	-1.70233	0	0	0	0	0.722998	0	-0.228545	0	0	0
0.22	-78.3086	682.776	-33.0189	0.223345	0.006	-0.168105	0	-1.78647	0	0	0	0	0.722998	0	-0.228545	0	0	0
0.23	-72.9624	670.207	-31.1666	0.226752	0.006	-0.167544	0	-1.88816	0	0	0	0	0.722998	0	-0.228545	0	0	0
0.24	-67.716	657.453	-29.0544	0.230305	0.006	-0.166999	0	-2.01153	0	0	0	0	0.722998	0	-0.228545	0	0	0
0.25	-62.6862	645.1	-26.7665	0.234008	0.006	-0.16647	0	-2.1609	0	0	0	0	0.722998	0	-0.228545	0	0	0
0.26	-57.9513	633.633	-24.3904	0.237856	0.006	-0.165962	0	-2.34007	0	0	0	0	0.722998	0	-0.228545	0	0	0
0.27	-53.546	623.425	-22.0188	0.24183	0.006	-0.165476	0	-2.55146	0	0	0	0	0.722998	0	-0.228545	0	0	0
0.28	-49.4629	614.737	-19.7505	0.245903	0.006	-0.165013	0	-2.79557	0	0	0	0	0.722998	0	-0.228545	0	0	0
0.29	-45.6637	607.73	-17.6888	0.250042	0.006	-0.164569	0	-3.0704	0	0	0	0	0.722998	0	-0.228545	0	0	0
0.3	-42.0933	602.493	-15.9343	0.254212	0.006	-0.164142	0	-3.37152	0	0	0	0	0.722998	0	-0.228545	0	0	0
0.31	-38.6919	599.061	-14.5769	0.258383	0.006	-0.163727	0	-3.69257	0	0	0	0	0.722998	0	-0.228545	0	0	0
0.32	-35.4039	597.447	-13.6879	0.26253	0.006	-0.163323	0	-4.02597	0	0	0	0	0.722998	0	-0.228545	0	0	0
0.33	-32.1827	597.66	-13.3135	0.266637	0.006	-0.162931	0	-4.36369	0	0	0	0	0.722998	0	-0.228545	0	0	0
0.34	-28.9935	599.718	-13.4725	0.270693	0.006	-0.162555	0	-4.69789	0	0	0	0	0.722998	0	-0.228545	0	0	0
0.35	-25.8148	603.647	-14.1595	0.274696	0.006	-0.162203	0	-5.02131	0	0	0	0	0.722998	0	-0.228545	0	0	0
0.36	-22.6373	609.473	-15.3491	0.278649	0.006	-0.161882	0	-5.3274	0	0	0	0	0.722998	0	-0.228545	0	0	0
0.37	-19.46	617.194	-17.0031	0.282561	0.006	-0.161604	0	-5.61007	0	0	0	0	0.722998	0	-0.228545	0	0	0
0.38	-16.2856	626.763	-19.0737	0.286446	0.006	-0.161373	0	-5.86337	0	0	0	0	0.722998	0	-0.228545	0	0	0
0.39	-13.1145	638.063	-21.5069	0.290314	0.006	-0.161198	0	-6.0813	0	0	0	0	0.722998	0	-0.228545	0	0	0
0.4	-9.93722	650.908	-24.2429	0.294176	0.006	-0.161079	0	-6.25814	0	0	0	0	0.722998	0	-0.228545	0	0	0
0.41	-6.73013	665.049	-27.215	0.298037	0.006	-0.16102	0	-6.3891	0	0	0	0	0.722998	0	-0.228545	0	0	0
0.42	-3.4532	680.192	-30.3512	0.301896	0.006	-0.161018	0	-6.47065	0	0	0	0	0.722998	0	-0.228545	0	0	0
0.43	-0.0495823	696.001	-33.5763	0.30574	0.006	-0.161073	0	-6.50069	0	0	0	0	0.722998	0	-0.228545	0	0	0
0.44	3.55304	712.098	-36.8167	0.309553	0.006	-0.161182	0	-6.47843	0	0	0	0	0.722998	0	-0.228545	0	0	0
0.45	7.43682	728.061	-40.0067	0.313309	0.006	-0.16134	0	-6.40404	0	0	0	0	0.722998	0	-0.228545	0	0	0
0.46	11.6816	743.416	-43.0927	0.316985	0.006	-0.161542	0	-6.27818	0	0	0	0	0.722998	0	-0.228545	0	0	0
0.47	16.3517	757.649	-46.0338	0.320558	0.006	-0.16178	0	-6.10163	0	0	0	0	0.722998	0	-0.228545	0	0	0
0.48	21.4851	770.215	-48.7973	0.32401	0.006	-0.162046	0	-5.87582	0	0	0	0	0.722998	0	-0.228545	0	0	0
0.49	27.0874	780.556	-51.3531	0.32733	0.006	-0.162332	0	-5.60332	0	0	0	0	0.722998	0	-0.228545	0	0	0
0.5	33.1288	788.12	-53.6709	0.330508	0.006	-0.162632	0	-5.28816	0	0	0	0	0.722998	0	-0.228545	0	0	0
0.51	39.5404	792.365	-55.7199	0.333544	0.006	-0.162939	0	-4.93582	0	0	0	0	0.722998	0	-0.228545	0	0	0
0.52	46.2108	792.759	-57.4649	0.336441	0.006	-0.163247	0	-4.5533	0	0	0	0	0.722998	0	-0.228545	0	0	0
0.53	52.9878	788.786	-58.8613	0.339213	0.006	-0.163552	0	-4.14945	0	0.0878457	35.6727	-8.75928	0.765208	0.006	-0.254967	0	0.053837	0
0.54	59.6817	779.969	-59.8533	0.341874	0.006	-0.163852	0	-3.73504	0	-1.90617	59.3874	-10.2196	0.798074	0.006	-0.275087	0	0.152036	0
0.55	66.0734	765.896	-60.378	0.344447	0.006	-0.164146	0	-3.32205	0	-4.72309	88.564	-11.6536	0.81639	0.006	-0.285905	0	0.192986	0
0.56	71.9222	746.256	-60.3729	0.346955	0.006	-0.164434	0	-2.92269	0	-8.50432	123.338	-12.942	0.828589	0.006	-0.292815	0	0.216507	0
0.57	76.978	720.875	-59.7861	0.349425	0.006	-0.164717	0	-2.54818	0	-13.3827	163.557	-13.9319	0.837733	0.006	-0.297767	0	0.239974	0
0.58	80.9988	689.756	-58.5854	0.351884	0.006	-0.164994	0	-2.20752	0	-19.4319	208.823	-14.4639	0.845199	0.006	-0.301634	0	0.274123	0
0.59	83.7702	653.104	-56.7623	0.354358	0.006	-0.165262	0	-1.90655	0	-26.6252	258.551	-14.3985	0.85168	0.006	-0.304858	0	0.327329	0
0.6	85.1165	611.346	-54.3332	0.356874	0.006	-0.16552	0	-1.64734	0	-34.8159	311.996	-13.6315	0.857545	0.006	-0.307682	0	0.406751	0
0.61	84.9061	565.129	-51.3357	0.359459	0.006	-0.165762	0	-1.42814	0	-43.7538	368.219	-12.1059	0.862995	0.006	-0.310243	0	0.518176	0
0.62	83.0608	515.311	-47.8272	0.362143	0.006	-0.165983	0	-1.24382	0	-53.1196	426.07	-9.81987	0.86814	0.006	-0.312623	0	0.665335	0
0.63	79.5793	462.928	-43.8875	0.364959	0.006	-0.166177	0	-1.08684	0	-62.5586	484.246	-6.8371	0.873048	0.006	-0.314869	0	0.84854	0
0.64	74.5616	409.155	-39.6193	0.367949	0.006	-0.166337	0	-0.948995	0	-71.7125	541.413	-3.28951	0.877761	0.006	-0.317011	0	1.06442	0
